<svg xmlns="http://www.w3.org/2000/svg" xmlns:xlink="http://www.w3.org/1999/xlink" viewBox="0,0,256,256" width="24px" height="24px" fill-rule="nonzero"><g fill="#183a37" fill-rule="nonzero" stroke="none" stroke-width="1" stroke-linecap="butt" stroke-linejoin="miter" stroke-miterlimit="10" stroke-dasharray="" stroke-dashoffset="0" font-family="none" font-weight="none" font-size="none" text-anchor="none" style="mix-blend-mode: normal"><g transform="scale(10.66667,10.66667)"><path d="M12,2c-5.514,0 -10,4.486 -10,10c0,5.514 4.486,10 10,10c5.514,0 10,-4.486 10,-10c0,-5.514 -4.486,-10 -10,-10zM16,13.25h-2.75v2.75c0,0.69 -0.56,1.25 -1.25,1.25c-0.69,0 -1.25,-0.56 -1.25,-1.25v-2.75h-2.75c-0.69,0 -1.25,-0.56 -1.25,-1.25c0,-0.69 0.56,-1.25 1.25,-1.25h2.75v-2.75c0,-0.69 0.56,-1.25 1.25,-1.25c0.69,0 1.25,0.56 1.25,1.25v2.75h2.75c0.69,0 1.25,0.56 1.25,1.25c0,0.69 -0.56,1.25 -1.25,1.25z"></path></g></g></svg>